<mxfile host="app.diagrams.net" agent="Mozilla/5.0 (Windows NT 10.0; Win64; x64) AppleWebKit/537.36 (KHTML, like Gecko) Chrome/127.0.0.0 Safari/537.36" version="24.7.6">
  <diagram name="Página-1" id="N7DbocTHk7-mCzlFjlTv">
    <mxGraphModel dx="1947" dy="1603" grid="1" gridSize="10" guides="1" tooltips="1" connect="1" arrows="1" fold="1" page="1" pageScale="1" pageWidth="827" pageHeight="1169" math="0" shadow="0">
      <root>
        <mxCell id="0" />
        <mxCell id="1" parent="0" />
        <mxCell id="IhZ5PF9XAtKIM2j2nd8S-6" value="" style="edgeStyle=orthogonalEdgeStyle;rounded=0;orthogonalLoop=1;jettySize=auto;html=1;" edge="1" parent="1" source="IhZ5PF9XAtKIM2j2nd8S-1" target="IhZ5PF9XAtKIM2j2nd8S-3">
          <mxGeometry relative="1" as="geometry" />
        </mxCell>
        <mxCell id="IhZ5PF9XAtKIM2j2nd8S-1" value="Verificar Registro de Fallback" style="rounded=0;whiteSpace=wrap;html=1;" vertex="1" parent="1">
          <mxGeometry x="510" y="175" width="120" height="60" as="geometry" />
        </mxCell>
        <mxCell id="IhZ5PF9XAtKIM2j2nd8S-2" value="&lt;div&gt;Cadastro de APIs Verficação de fallback&amp;nbsp;&lt;/div&gt;&lt;div&gt;&lt;br&gt;&lt;/div&gt;Nome: API Deutche Empresa Fallback&lt;div&gt;&lt;br&gt;&lt;/div&gt;&lt;div&gt;&lt;br&gt;&lt;/div&gt;&lt;div&gt;URL:&amp;nbsp;&lt;span style=&quot;background-color: initial;&quot;&gt;10.100.0.1/fallback-verifiier&lt;/span&gt;&lt;/div&gt;" style="rounded=0;whiteSpace=wrap;html=1;" vertex="1" parent="1">
          <mxGeometry x="-10" y="30" width="290" height="120" as="geometry" />
        </mxCell>
        <mxCell id="IhZ5PF9XAtKIM2j2nd8S-3" value="Verificar Registro de Fallback&lt;div&gt;&lt;br&gt;&lt;/div&gt;&lt;div&gt;&lt;br&gt;&lt;/div&gt;&lt;div&gt;&lt;br&gt;&lt;/div&gt;&lt;div&gt;API:&lt;/div&gt;&lt;div&gt;&lt;br&gt;&lt;/div&gt;&lt;div&gt;&lt;br&gt;&lt;/div&gt;" style="rounded=0;whiteSpace=wrap;html=1;" vertex="1" parent="1">
          <mxGeometry x="720" y="130" width="250" height="150" as="geometry" />
        </mxCell>
        <mxCell id="IhZ5PF9XAtKIM2j2nd8S-5" value="" style="edgeStyle=orthogonalEdgeStyle;rounded=0;orthogonalLoop=1;jettySize=auto;html=1;" edge="1" parent="1" source="IhZ5PF9XAtKIM2j2nd8S-4" target="IhZ5PF9XAtKIM2j2nd8S-1">
          <mxGeometry relative="1" as="geometry" />
        </mxCell>
        <mxCell id="IhZ5PF9XAtKIM2j2nd8S-4" value="Enviar Impresso" style="rounded=0;whiteSpace=wrap;html=1;" vertex="1" parent="1">
          <mxGeometry x="510" y="270" width="120" height="60" as="geometry" />
        </mxCell>
        <mxCell id="IhZ5PF9XAtKIM2j2nd8S-7" value="&lt;span style=&quot;color: rgb(0, 0, 0); font-size: 12px; text-align: center;&quot;&gt;API Deutsche Empresa Fallback&lt;/span&gt;" style="strokeWidth=1;html=1;shadow=0;dashed=0;shape=mxgraph.ios.iComboBox;spacingTop=2;spacingLeft=2;align=left;strokeColor=#444444;fontColor=#666666;buttonText=;fontSize=8;fillColor=#dddddd;fillColor2=#3D5565;sketch=0;whiteSpace=wrap;" vertex="1" parent="1">
          <mxGeometry x="744.5" y="240" width="201" height="15" as="geometry" />
        </mxCell>
        <mxCell id="IhZ5PF9XAtKIM2j2nd8S-8" value="Enviar Email" style="rounded=0;whiteSpace=wrap;html=1;" vertex="1" parent="1">
          <mxGeometry x="520" y="-160" width="120" height="60" as="geometry" />
        </mxCell>
        <mxCell id="IhZ5PF9XAtKIM2j2nd8S-11" style="edgeStyle=orthogonalEdgeStyle;rounded=0;orthogonalLoop=1;jettySize=auto;html=1;" edge="1" parent="1" source="IhZ5PF9XAtKIM2j2nd8S-9" target="IhZ5PF9XAtKIM2j2nd8S-10">
          <mxGeometry relative="1" as="geometry" />
        </mxCell>
        <mxCell id="IhZ5PF9XAtKIM2j2nd8S-9" value="Prazo de 1 Dia" style="rounded=0;whiteSpace=wrap;html=1;" vertex="1" parent="1">
          <mxGeometry x="520" y="-80" width="120" height="60" as="geometry" />
        </mxCell>
        <mxCell id="IhZ5PF9XAtKIM2j2nd8S-13" value="" style="edgeStyle=orthogonalEdgeStyle;rounded=0;orthogonalLoop=1;jettySize=auto;html=1;" edge="1" parent="1" source="IhZ5PF9XAtKIM2j2nd8S-10" target="IhZ5PF9XAtKIM2j2nd8S-12">
          <mxGeometry relative="1" as="geometry" />
        </mxCell>
        <mxCell id="IhZ5PF9XAtKIM2j2nd8S-17" style="edgeStyle=orthogonalEdgeStyle;rounded=0;orthogonalLoop=1;jettySize=auto;html=1;" edge="1" parent="1" source="IhZ5PF9XAtKIM2j2nd8S-10" target="IhZ5PF9XAtKIM2j2nd8S-15">
          <mxGeometry relative="1" as="geometry" />
        </mxCell>
        <mxCell id="IhZ5PF9XAtKIM2j2nd8S-10" value="Comunicação Aberta?" style="rounded=0;whiteSpace=wrap;html=1;" vertex="1" parent="1">
          <mxGeometry x="510" y="20" width="120" height="60" as="geometry" />
        </mxCell>
        <mxCell id="IhZ5PF9XAtKIM2j2nd8S-14" value="" style="edgeStyle=orthogonalEdgeStyle;rounded=0;orthogonalLoop=1;jettySize=auto;html=1;" edge="1" parent="1" source="IhZ5PF9XAtKIM2j2nd8S-12" target="IhZ5PF9XAtKIM2j2nd8S-1">
          <mxGeometry relative="1" as="geometry" />
        </mxCell>
        <mxCell id="IhZ5PF9XAtKIM2j2nd8S-12" value="Não" style="rounded=0;whiteSpace=wrap;html=1;" vertex="1" parent="1">
          <mxGeometry x="520" y="100" width="100" height="30" as="geometry" />
        </mxCell>
        <mxCell id="IhZ5PF9XAtKIM2j2nd8S-15" value="Sim" style="rounded=0;whiteSpace=wrap;html=1;" vertex="1" parent="1">
          <mxGeometry x="400" y="100" width="100" height="30" as="geometry" />
        </mxCell>
      </root>
    </mxGraphModel>
  </diagram>
</mxfile>
